{
  "accessors": [
    {
      "bufferView": 2,
      "componentType": 5126,
      "count": 9932,
      "max": [
        2.65625,
        7.539062976837158,
        6.242187976837158
      ],
      "min": [
        -4.386719226837158,
        -9.0625,
        -0.006874000187963247
      ],
      "type": "VEC3"
    },
    {
      "bufferView": 2,
      "byteOffset": 119184,
      "componentType": 5126,
      "count": 9932,
      "max": [
        1.0,
        1.0,
        1.0
      ],
      "min": [
        -1.0,
        -1.0,
        -1.0
      ],
      "type": "VEC3"
    },
    {
      "bufferView": 1,
      "componentType": 5126,
      "count": 9932,
      "max": [
        0.9980469942092896,
        0.9985380172729492
      ],
      "min": [
        -0.9956049919128418,
        0.002440999960526824
      ],
      "type": "VEC2"
    },
    {
      "bufferView": 0,
      "componentType": 5125,
      "count": 28278,
      "type": "SCALAR"
    },
    {
      "bufferView": 2,
      "byteOffset": 238368,
      "componentType": 5126,
      "count": 9923,
      "max": [
        4.613280773162842,
        9.0625,
        6.164062976837158
      ],
      "min": [
        -4.617187976837158,
        -7.597655773162842,
        0.0014929999597370625
      ],
      "type": "VEC3"
    },
    {
      "bufferView": 2,
      "byteOffset": 357444,
      "componentType": 5126,
      "count": 9923,
      "max": [
        1.0,
        1.0,
        1.0
      ],
      "min": [
        -1.0,
        -1.0,
        -1.0
      ],
      "type": "VEC3"
    },
    {
      "bufferView": 1,
      "byteOffset": 79456,
      "componentType": 5126,
      "count": 9923,
      "max": [
        0.9980469942092896,
        0.9984769821166992
      ],
      "min": [
        -0.9116209745407104,
        0.0009769999887794256
      ],
      "type": "VEC2"
    },
    {
      "bufferView": 0,
      "byteOffset": 113112,
      "componentType": 5125,
      "count": 25788,
      "type": "SCALAR"
    },
    {
      "bufferView": 2,
      "byteOffset": 476520,
      "componentType": 5126,
      "count": 4329,
      "max": [
        4.617187976837158,
        7.59375,
        6.238280773162842
      ],
      "min": [
        -3.494141101837158,
        -7.449219226837158,
        0.2958979904651642
      ],
      "type": "VEC3"
    },
    {
      "bufferView": 2,
      "byteOffset": 528468,
      "componentType": 5126,
      "count": 4329,
      "max": [
        1.0,
        1.0,
        1.0
      ],
      "min": [
        -1.0,
        -1.0,
        -1.0
      ],
      "type": "VEC3"
    },
    {
      "bufferView": 1,
      "byteOffset": 158840,
      "componentType": 5126,
      "count": 4329,
      "max": [
        0.9975590109825134,
        0.9983389973640442
      ],
      "min": [
        -0.8989260196685791,
        0.0014649999793618917
      ],
      "type": "VEC2"
    },
    {
      "bufferView": 0,
      "byteOffset": 216264,
      "componentType": 5125,
      "count": 9066,
      "type": "SCALAR"
    },
    {
      "bufferView": 2,
      "byteOffset": 580416,
      "componentType": 5126,
      "count": 1153,
      "max": [
        8.664063453674316,
        2.757812976837158,
        4.738280773162842
      ],
      "min": [
        -8.664063453674316,
        -7.234375,
        0.3493649959564209
      ],
      "type": "VEC3"
    },
    {
      "bufferView": 2,
      "byteOffset": 594252,
      "componentType": 5126,
      "count": 1153,
      "max": [
        0.9959003329277039,
        0.9927584528923035,
        1.0
      ],
      "min": [
        -0.9959003329277039,
        -0.9936301112174988,
        -1.0
      ],
      "type": "VEC3"
    },
    {
      "bufferView": 1,
      "byteOffset": 193472,
      "componentType": 5126,
      "count": 1153,
      "max": [
        0.9838870167732239,
        0.9883120059967041
      ],
      "min": [
        0.012772000394761562,
        0.010742000304162502
      ],
      "type": "VEC2"
    },
    {
      "bufferView": 0,
      "byteOffset": 252528,
      "componentType": 5125,
      "count": 5268,
      "type": "SCALAR"
    },
    {
      "bufferView": 2,
      "byteOffset": 608088,
      "componentType": 5126,
      "count": 9879,
      "max": [
        8.351563453674316,
        7.292969226837158,
        6.605469226837158
      ],
      "min": [
        -8.671875,
        -3.09375,
        1.6337889432907104
      ],
      "type": "VEC3"
    },
    {
      "bufferView": 2,
      "byteOffset": 726636,
      "componentType": 5126,
      "count": 9879,
      "max": [
        1.0,
        1.0,
        1.0
      ],
      "min": [
        -1.0,
        -1.0,
        -1.0
      ],
      "type": "VEC3"
    },
    {
      "bufferView": 1,
      "byteOffset": 202696,
      "componentType": 5126,
      "count": 9879,
      "max": [
        0.9956049919128418,
        0.9966980218887329
      ],
      "min": [
        0.0018599999602884054,
        0.0029299999587237835
      ],
      "type": "VEC2"
    },
    {
      "bufferView": 0,
      "byteOffset": 273600,
      "componentType": 5125,
      "count": 23922,
      "type": "SCALAR"
    },
    {
      "bufferView": 2,
      "byteOffset": 845184,
      "componentType": 5126,
      "count": 9840,
      "max": [
        9.742188453674316,
        7.292969226837158,
        6.578125
      ],
      "min": [
        -9.742188453674316,
        -3.09375,
        1.5869139432907104
      ],
      "type": "VEC3"
    },
    {
      "bufferView": 2,
      "byteOffset": 963264,
      "componentType": 5126,
      "count": 9840,
      "max": [
        1.0,
        1.0,
        1.0
      ],
      "min": [
        -1.0,
        -1.0,
        -1.0
      ],
      "type": "VEC3"
    },
    {
      "bufferView": 1,
      "byteOffset": 281728,
      "componentType": 5126,
      "count": 9840,
      "max": [
        0.9970700144767761,
        0.9950219988822937
      ],
      "min": [
        0.0010949999559670687,
        0.0029299999587237835
      ],
      "type": "VEC2"
    },
    {
      "bufferView": 0,
      "byteOffset": 369288,
      "componentType": 5125,
      "count": 23598,
      "type": "SCALAR"
    },
    {
      "bufferView": 2,
      "byteOffset": 1081344,
      "componentType": 5126,
      "count": 6951,
      "max": [
        9.523438453674316,
        7.292969226837158,
        6.578125
      ],
      "min": [
        -8.71875,
        -3.09375,
        1.6074219942092896
      ],
      "type": "VEC3"
    },
    {
      "bufferView": 2,
      "byteOffset": 1164756,
      "componentType": 5126,
      "count": 6951,
      "max": [
        1.0,
        1.0,
        1.0
      ],
      "min": [
        -1.0,
        -1.0,
        -1.0
      ],
      "type": "VEC3"
    },
    {
      "bufferView": 1,
      "byteOffset": 360448,
      "componentType": 5126,
      "count": 6951,
      "max": [
        0.9951170086860657,
        0.9966980218887329
      ],
      "min": [
        0.0010949999559670687,
        0.0029299999587237835
      ],
      "type": "VEC2"
    },
    {
      "bufferView": 0,
      "byteOffset": 463680,
      "componentType": 5125,
      "count": 15780,
      "type": "SCALAR"
    },
    {
      "bufferView": 2,
      "byteOffset": 1248168,
      "componentType": 5126,
      "count": 9873,
      "max": [
        2.164062976837158,
        6.835937976837158,
        4.753905773162842
      ],
      "min": [
        -2.164062976837158,
        -7.40625,
        0.19372600317001343
      ],
      "type": "VEC3"
    },
    {
      "bufferView": 2,
      "byteOffset": 1366644,
      "componentType": 5126,
      "count": 9873,
      "max": [
        1.0,
        1.0,
        1.0
      ],
      "min": [
        -1.0,
        -1.0,
        -1.0
      ],
      "type": "VEC3"
    },
    {
      "bufferView": 1,
      "byteOffset": 416056,
      "componentType": 5126,
      "count": 9873,
      "max": [
        0.9990230202674866,
        0.9975889921188354
      ],
      "min": [
        0.003924999851733446,
        0.0014649999793618917
      ],
      "type": "VEC2"
    },
    {
      "bufferView": 0,
      "byteOffset": 526800,
      "componentType": 5125,
      "count": 23136,
      "type": "SCALAR"
    },
    {
      "bufferView": 2,
      "byteOffset": 1485120,
      "componentType": 5126,
      "count": 5741,
      "max": [
        1.9677729606628418,
        6.023437976837158,
        4.621094226837158
      ],
      "min": [
        -2.109375,
        -7.277344226837158,
        0.19372600317001343
      ],
      "type": "VEC3"
    },
    {
      "bufferView": 2,
      "byteOffset": 1554012,
      "componentType": 5126,
      "count": 5741,
      "max": [
        1.0,
        1.0,
        1.0
      ],
      "min": [
        -1.0,
        -1.0,
        -1.0
      ],
      "type": "VEC3"
    },
    {
      "bufferView": 1,
      "byteOffset": 495040,
      "componentType": 5126,
      "count": 5741,
      "max": [
        0.9990230202674866,
        0.9975889921188354
      ],
      "min": [
        0.003924999851733446,
        0.0019529999699443579
      ],
      "type": "VEC2"
    },
    {
      "bufferView": 0,
      "byteOffset": 619344,
      "componentType": 5125,
      "count": 13578,
      "type": "SCALAR"
    },
    {
      "bufferView": 2,
      "byteOffset": 1622904,
      "componentType": 5126,
      "count": 144,
      "max": [
        0.5512700080871582,
        2.957031011581421,
        3.009766101837158
      ],
      "min": [
        -0.5493159890174866,
        0.38085898756980896,
        2.072266101837158
      ],
      "type": "VEC3"
    },
    {
      "bufferView": 2,
      "byteOffset": 1624632,
      "componentType": 5126,
      "count": 144,
      "max": [
        0.9900259971618652,
        0.7956411242485046,
        0.9999537467956543
      ],
      "min": [
        -0.9900281429290771,
        -0.7938938736915588,
        -0.9999530911445618
      ],
      "type": "VEC3"
    },
    {
      "bufferView": 1,
      "byteOffset": 540968,
      "componentType": 5126,
      "count": 144,
      "max": [
        2.980468988418579,
        1.995116949081421
      ],
      "min": [
        2.009766101837158,
        1.004951000213623
      ],
      "type": "VEC2"
    },
    {
      "bufferView": 0,
      "byteOffset": 673656,
      "componentType": 5125,
      "count": 468,
      "type": "SCALAR"
    }
  ],
  "asset": {
    "extras": {
      "author": "lazae (https://sketchfab.com/lazae)",
      "license": "CC-BY-4.0 (http://creativecommons.org/licenses/by/4.0/)",
      "source": "https://sketchfab.com/3d-models/star-wars-republic-laat-b42ac1e90cd64fbdb6921f7ca358e4e6",
      "title": "Star Wars - Republic LAAT"
    },
    "generator": "Sketchfab-12.26.1",
    "version": "2.0"
  },
  "bufferViews": [
    {
      "buffer": 0,
      "byteLength": 675528,
      "name": "floatBufferViews",
      "target": 34963
    },
    {
      "buffer": 0,
      "byteLength": 542120,
      "byteOffset": 675528,
      "byteStride": 8,
      "name": "floatBufferViews",
      "target": 34962
    },
    {
      "buffer": 0,
      "byteLength": 1626360,
      "byteOffset": 1217648,
      "byteStride": 12,
      "name": "floatBufferViews",
      "target": 34962
    }
  ],
  "buffers": [
    {
      "byteLength": 2844008,
      "uri": "scene.bin"
    }
  ],
  "images": [
    {
      "uri": "textures/lambert2SG_baseColor.png"
    },
    {
      "uri": "textures/lambert4SG_baseColor.png"
    },
    {
      "uri": "textures/lambert5SG_baseColor.png"
    },
    {
      "uri": "textures/lambert6SG_baseColor.png"
    }
  ],
  "materials": [
    {
      "doubleSided": true,
      "name": "lambert2SG",
      "pbrMetallicRoughness": {
        "baseColorTexture": {
          "index": 0
        },
        "metallicFactor": 0.0,
        "roughnessFactor": 0.6
      }
    },
    {
      "alphaMode": "BLEND",
      "doubleSided": true,
      "name": "lambert3SG",
      "pbrMetallicRoughness": {
        "baseColorFactor": [
          0.0,
          0.0,
          0.0,
          0.32941455873246805
        ],
        "metallicFactor": 0.0,
        "roughnessFactor": 0.08664013259051788
      }
    },
    {
      "doubleSided": true,
      "name": "lambert4SG",
      "pbrMetallicRoughness": {
        "baseColorTexture": {
          "index": 1
        },
        "metallicFactor": 0.0,
        "roughnessFactor": 0.6
      }
    },
    {
      "doubleSided": true,
      "name": "lambert5SG",
      "pbrMetallicRoughness": {
        "baseColorTexture": {
          "index": 2
        },
        "metallicFactor": 0.0,
        "roughnessFactor": 0.6
      }
    },
    {
      "alphaMode": "BLEND",
      "doubleSided": true,
      "name": "lambert6SG",
      "pbrMetallicRoughness": {
        "baseColorTexture": {
          "index": 3
        },
        "metallicFactor": 0.0,
        "roughnessFactor": 0.6
      }
    }
  ],
  "meshes": [
    {
      "name": "Object_0",
      "primitives": [
        {
          "attributes": {
            "NORMAL": 1,
            "POSITION": 0,
            "TEXCOORD_0": 2
          },
          "indices": 3,
          "material": 0,
          "mode": 4
        }
      ]
    },
    {
      "name": "Object_1",
      "primitives": [
        {
          "attributes": {
            "NORMAL": 5,
            "POSITION": 4,
            "TEXCOORD_0": 6
          },
          "indices": 7,
          "material": 0,
          "mode": 4
        }
      ]
    },
    {
      "name": "Object_2",
      "primitives": [
        {
          "attributes": {
            "NORMAL": 9,
            "POSITION": 8,
            "TEXCOORD_0": 10
          },
          "indices": 11,
          "material": 0,
          "mode": 4
        }
      ]
    },
    {
      "name": "Object_3",
      "primitives": [
        {
          "attributes": {
            "NORMAL": 13,
            "POSITION": 12,
            "TEXCOORD_0": 14
          },
          "indices": 15,
          "material": 1,
          "mode": 4
        }
      ]
    },
    {
      "name": "Object_4",
      "primitives": [
        {
          "attributes": {
            "NORMAL": 17,
            "POSITION": 16,
            "TEXCOORD_0": 18
          },
          "indices": 19,
          "material": 2,
          "mode": 4
        }
      ]
    },
    {
      "name": "Object_5",
      "primitives": [
        {
          "attributes": {
            "NORMAL": 21,
            "POSITION": 20,
            "TEXCOORD_0": 22
          },
          "indices": 23,
          "material": 2,
          "mode": 4
        }
      ]
    },
    {
      "name": "Object_6",
      "primitives": [
        {
          "attributes": {
            "NORMAL": 25,
            "POSITION": 24,
            "TEXCOORD_0": 26
          },
          "indices": 27,
          "material": 2,
          "mode": 4
        }
      ]
    },
    {
      "name": "Object_7",
      "primitives": [
        {
          "attributes": {
            "NORMAL": 29,
            "POSITION": 28,
            "TEXCOORD_0": 30
          },
          "indices": 31,
          "material": 3,
          "mode": 4
        }
      ]
    },
    {
      "name": "Object_8",
      "primitives": [
        {
          "attributes": {
            "NORMAL": 33,
            "POSITION": 32,
            "TEXCOORD_0": 34
          },
          "indices": 35,
          "material": 3,
          "mode": 4
        }
      ]
    },
    {
      "name": "Object_9",
      "primitives": [
        {
          "attributes": {
            "NORMAL": 37,
            "POSITION": 36,
            "TEXCOORD_0": 38
          },
          "indices": 39,
          "material": 4,
          "mode": 4
        }
      ]
    }
  ],
  "nodes": [
    {
      "children": [
        1
      ],
      "matrix": [
        1.0,
        0.0,
        0.0,
        0.0,
        0.0,
        2.220446049250313e-16,
        -1.0,
        0.0,
        0.0,
        1.0,
        2.220446049250313e-16,
        0.0,
        0.0,
        0.0,
        0.0,
        1.0
      ],
      "name": "Sketchfab_model"
    },
    {
      "children": [
        2,
        3,
        4,
        5,
        6,
        7,
        8,
        9,
        10,
        11
      ],
      "name": "LAAT.obj.cleaner.materialmerger.gles"
    },
    {
      "mesh": 0,
      "name": "Object_2"
    },
    {
      "mesh": 1,
      "name": "Object_3"
    },
    {
      "mesh": 2,
      "name": "Object_4"
    },
    {
      "mesh": 3,
      "name": "Object_5"
    },
    {
      "mesh": 4,
      "name": "Object_6"
    },
    {
      "mesh": 5,
      "name": "Object_7"
    },
    {
      "mesh": 6,
      "name": "Object_8"
    },
    {
      "mesh": 7,
      "name": "Object_9"
    },
    {
      "mesh": 8,
      "name": "Object_10"
    },
    {
      "mesh": 9,
      "name": "Object_11"
    }
  ],
  "samplers": [
    {
      "magFilter": 9729,
      "minFilter": 9987,
      "wrapS": 10497,
      "wrapT": 10497
    }
  ],
  "scene": 0,
  "scenes": [
    {
      "name": "Sketchfab_Scene",
      "nodes": [
        0
      ]
    }
  ],
  "textures": [
    {
      "sampler": 0,
      "source": 0
    },
    {
      "sampler": 0,
      "source": 1
    },
    {
      "sampler": 0,
      "source": 2
    },
    {
      "sampler": 0,
      "source": 3
    }
  ]
}
